<svg xmlns="http://www.w3.org/2000/svg" xmlns:xlink="http://www.w3.org/1999/xlink" width="1123" zoomAndPan="magnify" viewBox="0 0 842.25 597.750004" height="797" preserveAspectRatio="xMidYMid meet" version="1.0"><defs><g/></defs><g fill="#000000" fill-opacity="1"><g transform="translate(27.896656, 289.709242)"><g><path d="M 93.140625 0 L 64 0 L 31 -39.5 L 31 0 L 6.515625 0 L 6.515625 -58.390625 L 35.640625 -58.390625 L 68.640625 -19.078125 L 68.640625 -58.390625 L 93.140625 -58.390625 Z M 93.140625 0 "/></g></g></g><g fill="#000000" fill-opacity="1"><g transform="translate(120.11167, 289.709242)"><g><path d="M 98.0625 0 L 73.234375 0 L 67.75 -9.5625 L 30.921875 -9.5625 L 25.4375 0 L 0.609375 0 L 37.96875 -58.34375 L 60.703125 -58.34375 Z M 59.484375 -24 L 49.359375 -41.703125 L 39.1875 -24 Z M 59.484375 -24 "/></g></g></g><g fill="#000000" fill-opacity="1"><g transform="translate(211.350306, 289.709242)"><g><path d="M 49.796875 0 L 25.3125 0 L 25.3125 -43.9375 L 2.4375 -43.9375 L 2.4375 -58.390625 L 72.671875 -58.390625 L 72.671875 -43.9375 L 49.796875 -43.9375 Z M 49.796875 0 "/></g></g></g><g fill="#000000" fill-opacity="1"><g transform="translate(279.03383, 289.709242)"><g><path d="M 41.046875 1.265625 C 26.804688 1.265625 16.785156 -1.691406 10.984375 -7.609375 C 6.097656 -12.566406 3.65625 -19.738281 3.65625 -29.125 L 3.65625 -58.34375 L 28.15625 -58.34375 L 28.15625 -29.125 C 28.15625 -25.0625 28.847656 -21.847656 30.234375 -19.484375 C 32.210938 -16.097656 35.816406 -14.40625 41.046875 -14.40625 C 46.335938 -14.40625 49.960938 -16.097656 51.921875 -19.484375 C 53.304688 -21.929688 54 -25.144531 54 -29.125 L 54 -58.34375 L 78.484375 -58.34375 L 78.484375 -28.8125 C 78.484375 -19.632812 76.054688 -12.566406 71.203125 -7.609375 C 65.367188 -1.691406 55.316406 1.265625 41.046875 1.265625 Z M 41.046875 1.265625 "/></g></g></g><g fill="#000000" fill-opacity="1"><g transform="translate(353.755421, 289.709242)"><g><path d="M 86.21875 0 L 63.0625 0 C 62.007812 -1.46875 61.265625 -3.335938 60.828125 -5.609375 C 60.453125 -7.378906 59.882812 -9.109375 59.125 -10.796875 C 58.363281 -12.492188 57.050781 -13.90625 55.1875 -15.03125 C 53.332031 -16.15625 50.570312 -16.757812 46.90625 -16.84375 L 31 -16.84375 L 31 0 L 6.515625 0 L 6.515625 -58.390625 L 46.34375 -58.390625 C 55.863281 -58.390625 63.546875 -57.675781 69.390625 -56.25 C 75.234375 -54.820312 79.5 -52.582031 82.1875 -49.53125 C 84.875 -46.476562 86.21875 -42.5 86.21875 -37.59375 C 86.21875 -33.5 85.285156 -30.050781 83.421875 -27.25 C 81.566406 -24.457031 78.632812 -22.25 74.625 -20.625 C 78.5 -19.03125 81.007812 -17.113281 82.15625 -14.875 C 83.3125 -12.632812 84.023438 -10.171875 84.296875 -7.484375 C 84.578125 -5.097656 85.21875 -2.601562 86.21875 0 Z M 31 -31.25 L 45 -31.28125 C 48.90625 -31.28125 51.984375 -31.457031 54.234375 -31.8125 C 56.484375 -32.164062 58.144531 -32.644531 59.21875 -33.25 C 60.289062 -33.863281 60.972656 -34.546875 61.265625 -35.296875 C 61.566406 -36.046875 61.71875 -36.8125 61.71875 -37.59375 C 61.71875 -38.382812 61.566406 -39.15625 61.265625 -39.90625 C 60.972656 -40.664062 60.289062 -41.351562 59.21875 -41.96875 C 58.144531 -42.582031 56.484375 -43.0625 54.234375 -43.40625 C 51.984375 -43.757812 48.90625 -43.9375 45 -43.9375 L 31 -43.9375 Z M 31 -31.25 "/></g></g></g><g fill="#000000" fill-opacity="1"><g transform="translate(435.799842, 289.709242)"><g><path d="M 98.0625 0 L 73.234375 0 L 67.75 -9.5625 L 30.921875 -9.5625 L 25.4375 0 L 0.609375 0 L 37.96875 -58.34375 L 60.703125 -58.34375 Z M 59.484375 -24 L 49.359375 -41.703125 L 39.1875 -24 Z M 59.484375 -24 "/></g></g></g><g fill="#000000" fill-opacity="1"><g transform="translate(527.038485, 289.709242)"><g><path d="M 74.65625 0 L 6.515625 0 L 6.515625 -58.390625 L 31 -58.390625 L 31 -14.4375 L 74.65625 -14.4375 Z M 74.65625 0 "/></g></g></g><g fill="#000000" fill-opacity="1"><g transform="translate(27.896656, 360.643811)"><g><path d="M 93.140625 0 L 64 0 L 31 -39.5 L 31 0 L 6.515625 0 L 6.515625 -58.390625 L 35.640625 -58.390625 L 68.640625 -19.078125 L 68.640625 -58.390625 L 93.140625 -58.390625 Z M 93.140625 0 "/></g></g></g><g fill="#000000" fill-opacity="1"><g transform="translate(120.11167, 360.643811)"><g><path d="M 41.046875 1.265625 C 26.804688 1.265625 16.785156 -1.691406 10.984375 -7.609375 C 6.097656 -12.566406 3.65625 -19.738281 3.65625 -29.125 L 3.65625 -58.34375 L 28.15625 -58.34375 L 28.15625 -29.125 C 28.15625 -25.0625 28.847656 -21.847656 30.234375 -19.484375 C 32.210938 -16.097656 35.816406 -14.40625 41.046875 -14.40625 C 46.335938 -14.40625 49.960938 -16.097656 51.921875 -19.484375 C 53.304688 -21.929688 54 -25.144531 54 -29.125 L 54 -58.34375 L 78.484375 -58.34375 L 78.484375 -28.8125 C 78.484375 -19.632812 76.054688 -12.566406 71.203125 -7.609375 C 65.367188 -1.691406 55.316406 1.265625 41.046875 1.265625 Z M 41.046875 1.265625 "/></g></g></g><g fill="#000000" fill-opacity="1"><g transform="translate(194.833254, 360.643811)"><g><path d="M 117.5 0 L 93.015625 0 L 93.015625 -37.234375 L 71.125 0 L 52.859375 0 L 31 -37.234375 L 31 0 L 6.515625 0 L 6.515625 -58.390625 L 35.609375 -58.390625 L 62.015625 -16.6875 L 88.375 -58.390625 L 117.5 -58.390625 Z M 117.5 0 "/></g></g></g><g fill="#000000" fill-opacity="1"><g transform="translate(311.417016, 360.643811)"><g><path d="M 48.375 0 L 6.515625 0 L 6.515625 -58.34375 L 49.265625 -58.34375 C 56.867188 -58.34375 63.125 -57.992188 68.03125 -57.296875 C 72.9375 -56.609375 76.71875 -55.523438 79.375 -54.046875 C 82.039062 -52.578125 83.847656 -50.703125 84.796875 -48.421875 C 85.742188 -46.140625 86.21875 -43.410156 86.21875 -40.234375 C 86.132812 -37.742188 85.445312 -35.675781 84.15625 -34.03125 C 82.875 -32.394531 81.367188 -31.175781 79.640625 -30.375 C 77.921875 -29.570312 76.410156 -29.171875 75.109375 -29.171875 C 76.378906 -29.171875 77.867188 -28.921875 79.578125 -28.421875 C 81.285156 -27.921875 82.945312 -27.191406 84.5625 -26.234375 C 86.175781 -25.285156 87.519531 -24.132812 88.59375 -22.78125 C 89.664062 -21.425781 90.203125 -19.878906 90.203125 -18.140625 C 90.203125 -15.867188 89.9375 -13.78125 89.40625 -11.875 C 88.882812 -9.976562 87.828125 -8.296875 86.234375 -6.828125 C 84.648438 -5.367188 82.3125 -4.128906 79.21875 -3.109375 C 76.125 -2.097656 72.070312 -1.328125 67.0625 -0.796875 C 62.0625 -0.265625 55.832031 0 48.375 0 Z M 47 -34.171875 C 50.570312 -34.171875 53.34375 -34.347656 55.3125 -34.703125 C 57.28125 -35.054688 58.644531 -35.59375 59.40625 -36.3125 C 60.164062 -37.03125 60.546875 -37.945312 60.546875 -39.0625 C 60.546875 -40.195312 60.164062 -41.125 59.40625 -41.84375 C 58.644531 -42.5625 57.28125 -43.085938 55.3125 -43.421875 C 53.34375 -43.765625 50.570312 -43.9375 47 -43.9375 L 31 -43.9375 L 31 -34.171875 Z M 47 -14.40625 C 50.65625 -14.40625 53.625 -14.5 55.90625 -14.6875 C 58.1875 -14.875 59.851562 -15.304688 60.90625 -15.984375 C 61.96875 -16.660156 62.5 -17.757812 62.5 -19.28125 C 62.5 -20.800781 61.96875 -21.90625 60.90625 -22.59375 C 59.851562 -23.289062 58.1875 -23.726562 55.90625 -23.90625 C 53.625 -24.082031 50.65625 -24.171875 47 -24.171875 L 31 -24.171875 L 31 -14.40625 Z M 47 -14.40625 "/></g></g></g><g fill="#000000" fill-opacity="1"><g transform="translate(397.448312, 360.643811)"><g><path d="M 76.8125 0 L 6.515625 0 L 6.515625 -58.390625 L 73.609375 -58.390625 L 73.609375 -43.9375 L 31 -43.9375 L 31 -34.78125 L 67.015625 -34.78125 L 67.015625 -23.5625 L 31 -23.5625 L 31 -14.4375 L 76.8125 -14.4375 Z M 76.8125 0 "/></g></g></g><g fill="#000000" fill-opacity="1"><g transform="translate(470.095076, 360.643811)"><g><path d="M 86.21875 0 L 63.0625 0 C 62.007812 -1.46875 61.265625 -3.335938 60.828125 -5.609375 C 60.453125 -7.378906 59.882812 -9.109375 59.125 -10.796875 C 58.363281 -12.492188 57.050781 -13.90625 55.1875 -15.03125 C 53.332031 -16.15625 50.570312 -16.757812 46.90625 -16.84375 L 31 -16.84375 L 31 0 L 6.515625 0 L 6.515625 -58.390625 L 46.34375 -58.390625 C 55.863281 -58.390625 63.546875 -57.675781 69.390625 -56.25 C 75.234375 -54.820312 79.5 -52.582031 82.1875 -49.53125 C 84.875 -46.476562 86.21875 -42.5 86.21875 -37.59375 C 86.21875 -33.5 85.285156 -30.050781 83.421875 -27.25 C 81.566406 -24.457031 78.632812 -22.25 74.625 -20.625 C 78.5 -19.03125 81.007812 -17.113281 82.15625 -14.875 C 83.3125 -12.632812 84.023438 -10.171875 84.296875 -7.484375 C 84.578125 -5.097656 85.21875 -2.601562 86.21875 0 Z M 31 -31.25 L 45 -31.28125 C 48.90625 -31.28125 51.984375 -31.457031 54.234375 -31.8125 C 56.484375 -32.164062 58.144531 -32.644531 59.21875 -33.25 C 60.289062 -33.863281 60.972656 -34.546875 61.265625 -35.296875 C 61.566406 -36.046875 61.71875 -36.8125 61.71875 -37.59375 C 61.71875 -38.382812 61.566406 -39.15625 61.265625 -39.90625 C 60.972656 -40.664062 60.289062 -41.351562 59.21875 -41.96875 C 58.144531 -42.582031 56.484375 -43.0625 54.234375 -43.40625 C 51.984375 -43.757812 48.90625 -43.9375 45 -43.9375 L 31 -43.9375 Z M 31 -31.25 "/></g></g></g><g fill="#000000" fill-opacity="1"><g transform="translate(552.139498, 360.643811)"><g><path d="M 38.578125 1.265625 C 30.679688 1.265625 24.316406 0.414062 19.484375 -1.28125 C 14.660156 -2.976562 10.984375 -5.3125 8.453125 -8.28125 C 5.929688 -11.25 4.238281 -14.671875 3.375 -18.546875 L 29.375 -18.546875 C 31.300781 -15.785156 34.367188 -14.40625 38.578125 -14.40625 C 42.773438 -14.40625 45.835938 -15.785156 47.765625 -18.546875 C 47.929688 -18.816406 48.015625 -19.0625 48.015625 -19.28125 C 48.015625 -20.019531 47.039062 -20.570312 45.09375 -20.9375 C 43.15625 -21.300781 40.265625 -21.578125 36.421875 -21.765625 C 31.554688 -21.984375 26.453125 -22.5 21.109375 -23.3125 C 9.203125 -25.15625 3.25 -29.941406 3.25 -37.671875 C 3.25 -38.328125 3.289062 -39.019531 3.375 -39.75 C 4.238281 -43.625 5.929688 -47.046875 8.453125 -50.015625 C 10.984375 -52.992188 14.660156 -55.328125 19.484375 -57.015625 C 24.316406 -58.710938 30.679688 -59.5625 38.578125 -59.5625 C 46.460938 -59.5625 52.816406 -58.710938 57.640625 -57.015625 C 62.472656 -55.328125 66.148438 -52.992188 68.671875 -50.015625 C 71.203125 -47.046875 72.898438 -43.625 73.765625 -39.75 L 47.765625 -39.75 C 45.835938 -42.519531 42.773438 -43.90625 38.578125 -43.90625 C 34.367188 -43.90625 31.300781 -42.519531 29.375 -39.75 C 29.238281 -39.53125 29.171875 -39.328125 29.171875 -39.140625 C 29.171875 -38.492188 30.097656 -38.015625 31.953125 -37.703125 C 33.816406 -37.390625 36.554688 -37.125 40.171875 -36.90625 C 43.796875 -36.6875 47.65625 -36.332031 51.75 -35.84375 C 55.84375 -35.351562 59.671875 -34.503906 63.234375 -33.296875 C 66.804688 -32.085938 69.597656 -30.304688 71.609375 -27.953125 C 73.179688 -26.128906 73.96875 -23.820312 73.96875 -21.03125 C 73.96875 -20.25 73.898438 -19.421875 73.765625 -18.546875 C 72.898438 -14.671875 71.203125 -11.25 68.671875 -8.28125 C 66.148438 -5.3125 62.472656 -2.976562 57.640625 -1.28125 C 52.816406 0.414062 46.460938 1.265625 38.578125 1.265625 Z M 38.578125 1.265625 "/></g></g></g></svg>