<svg xmlns="http://www.w3.org/2000/svg" xmlns:xlink="http://www.w3.org/1999/xlink" width="1123" zoomAndPan="magnify" viewBox="0 0 842.25 597.750004" height="797" preserveAspectRatio="xMidYMid meet" version="1.0"><defs><g/></defs><g fill="#000000" fill-opacity="1"><g transform="translate(27.896656, 288.933862)"><g><path d="M 38.578125 1.265625 C 30.679688 1.265625 24.316406 0.414062 19.484375 -1.28125 C 14.660156 -2.976562 10.984375 -5.3125 8.453125 -8.28125 C 5.929688 -11.25 4.238281 -14.671875 3.375 -18.546875 L 29.375 -18.546875 C 31.300781 -15.785156 34.367188 -14.40625 38.578125 -14.40625 C 42.773438 -14.40625 45.835938 -15.785156 47.765625 -18.546875 C 47.929688 -18.816406 48.015625 -19.0625 48.015625 -19.28125 C 48.015625 -20.019531 47.039062 -20.570312 45.09375 -20.9375 C 43.15625 -21.300781 40.265625 -21.578125 36.421875 -21.765625 C 31.554688 -21.984375 26.453125 -22.5 21.109375 -23.3125 C 9.203125 -25.15625 3.25 -29.941406 3.25 -37.671875 C 3.25 -38.328125 3.289062 -39.019531 3.375 -39.75 C 4.238281 -43.625 5.929688 -47.046875 8.453125 -50.015625 C 10.984375 -52.992188 14.660156 -55.328125 19.484375 -57.015625 C 24.316406 -58.710938 30.679688 -59.5625 38.578125 -59.5625 C 46.460938 -59.5625 52.816406 -58.710938 57.640625 -57.015625 C 62.472656 -55.328125 66.148438 -52.992188 68.671875 -50.015625 C 71.203125 -47.046875 72.898438 -43.625 73.765625 -39.75 L 47.765625 -39.75 C 45.835938 -42.519531 42.773438 -43.90625 38.578125 -43.90625 C 34.367188 -43.90625 31.300781 -42.519531 29.375 -39.75 C 29.238281 -39.53125 29.171875 -39.328125 29.171875 -39.140625 C 29.171875 -38.492188 30.097656 -38.015625 31.953125 -37.703125 C 33.816406 -37.390625 36.554688 -37.125 40.171875 -36.90625 C 43.796875 -36.6875 47.65625 -36.332031 51.75 -35.84375 C 55.84375 -35.351562 59.671875 -34.503906 63.234375 -33.296875 C 66.804688 -32.085938 69.597656 -30.304688 71.609375 -27.953125 C 73.179688 -26.128906 73.96875 -23.820312 73.96875 -21.03125 C 73.96875 -20.25 73.898438 -19.421875 73.765625 -18.546875 C 72.898438 -14.671875 71.203125 -11.25 68.671875 -8.28125 C 66.148438 -5.3125 62.472656 -2.976562 57.640625 -1.28125 C 52.816406 0.414062 46.460938 1.265625 38.578125 1.265625 Z M 38.578125 1.265625 "/></g></g></g><g fill="#000000" fill-opacity="1"><g transform="translate(97.694615, 288.933862)"><g><path d="M 31 0 L 6.515625 0 L 6.515625 -58.390625 L 31 -58.390625 Z M 31 0 "/></g></g></g><g fill="#000000" fill-opacity="1"><g transform="translate(127.787088, 288.933862)"><g><path d="M 117.5 0 L 93.015625 0 L 93.015625 -37.234375 L 71.125 0 L 52.859375 0 L 31 -37.234375 L 31 0 L 6.515625 0 L 6.515625 -58.390625 L 35.609375 -58.390625 L 62.015625 -16.6875 L 88.375 -58.390625 L 117.5 -58.390625 Z M 117.5 0 "/></g></g></g><g fill="#000000" fill-opacity="1"><g transform="translate(244.369175, 288.933862)"><g><path d="M 31 0 L 6.515625 0 L 6.515625 -58.390625 L 46.34375 -58.390625 C 55.863281 -58.390625 63.546875 -57.675781 69.390625 -56.25 C 75.234375 -54.820312 79.5 -52.582031 82.1875 -49.53125 C 84.875 -46.476562 86.21875 -42.5 86.21875 -37.59375 C 86.21875 -32.707031 84.875 -28.738281 82.1875 -25.6875 C 79.5 -22.632812 75.234375 -20.394531 69.390625 -18.96875 C 63.546875 -17.550781 55.863281 -16.84375 46.34375 -16.84375 L 31 -16.84375 Z M 31 -31.25 L 45 -31.28125 C 48.90625 -31.28125 51.984375 -31.4375 54.234375 -31.75 C 56.484375 -32.0625 58.144531 -32.503906 59.21875 -33.078125 C 60.289062 -33.648438 60.972656 -34.320312 61.265625 -35.09375 C 61.566406 -35.863281 61.71875 -36.695312 61.71875 -37.59375 C 61.71875 -38.519531 61.566406 -39.367188 61.265625 -40.140625 C 60.972656 -40.910156 60.289062 -41.578125 59.21875 -42.140625 C 58.144531 -42.710938 56.484375 -43.15625 54.234375 -43.46875 C 51.984375 -43.78125 48.90625 -43.9375 45 -43.9375 L 31 -43.9375 Z M 31 -31.25 "/></g></g></g><g fill="#000000" fill-opacity="1"><g transform="translate(326.412371, 288.933862)"><g><path d="M 74.65625 0 L 6.515625 0 L 6.515625 -58.390625 L 31 -58.390625 L 31 -14.4375 L 74.65625 -14.4375 Z M 74.65625 0 "/></g></g></g><g fill="#000000" fill-opacity="1"><g transform="translate(395.274647, 288.933862)"><g><path d="M 76.8125 0 L 6.515625 0 L 6.515625 -58.390625 L 73.609375 -58.390625 L 73.609375 -43.9375 L 31 -43.9375 L 31 -34.78125 L 67.015625 -34.78125 L 67.015625 -23.5625 L 31 -23.5625 L 31 -14.4375 L 76.8125 -14.4375 Z M 76.8125 0 "/></g></g></g><g fill="#000000" fill-opacity="1"><g transform="translate(27.896656, 360.12047)"><g><path d="M 31 0 L 6.515625 0 L 6.515625 -58.390625 L 46.34375 -58.390625 C 55.863281 -58.390625 63.546875 -57.675781 69.390625 -56.25 C 75.234375 -54.820312 79.5 -52.582031 82.1875 -49.53125 C 84.875 -46.476562 86.21875 -42.5 86.21875 -37.59375 C 86.21875 -32.707031 84.875 -28.738281 82.1875 -25.6875 C 79.5 -22.632812 75.234375 -20.394531 69.390625 -18.96875 C 63.546875 -17.550781 55.863281 -16.84375 46.34375 -16.84375 L 31 -16.84375 Z M 31 -31.25 L 45 -31.28125 C 48.90625 -31.28125 51.984375 -31.4375 54.234375 -31.75 C 56.484375 -32.0625 58.144531 -32.503906 59.21875 -33.078125 C 60.289062 -33.648438 60.972656 -34.320312 61.265625 -35.09375 C 61.566406 -35.863281 61.71875 -36.695312 61.71875 -37.59375 C 61.71875 -38.519531 61.566406 -39.367188 61.265625 -40.140625 C 60.972656 -40.910156 60.289062 -41.578125 59.21875 -42.140625 C 58.144531 -42.710938 56.484375 -43.15625 54.234375 -43.46875 C 51.984375 -43.78125 48.90625 -43.9375 45 -43.9375 L 31 -43.9375 Z M 31 -31.25 "/></g></g></g><g fill="#000000" fill-opacity="1"><g transform="translate(109.939852, 360.12047)"><g><path d="M 98.0625 0 L 73.234375 0 L 67.75 -9.5625 L 30.921875 -9.5625 L 25.4375 0 L 0.609375 0 L 37.96875 -58.34375 L 60.703125 -58.34375 Z M 59.484375 -24 L 49.359375 -41.703125 L 39.1875 -24 Z M 59.484375 -24 "/></g></g></g><g fill="#000000" fill-opacity="1"><g transform="translate(201.177147, 360.12047)"><g><path d="M 56.96875 0 L 32.46875 0 L 32.46875 -27.671875 L 0.609375 -58.390625 L 27.75 -58.390625 L 44.71875 -40.9375 L 61.640625 -58.390625 L 88.78125 -58.390625 L 56.96875 -27.671875 Z M 56.96875 0 "/></g></g></g><g fill="#000000" fill-opacity="1"><g transform="translate(283.138979, 360.12047)"><g><path d="M 86.21875 0 L 63.0625 0 C 62.007812 -1.46875 61.265625 -3.335938 60.828125 -5.609375 C 60.453125 -7.378906 59.882812 -9.109375 59.125 -10.796875 C 58.363281 -12.492188 57.050781 -13.90625 55.1875 -15.03125 C 53.332031 -16.15625 50.570312 -16.757812 46.90625 -16.84375 L 31 -16.84375 L 31 0 L 6.515625 0 L 6.515625 -58.390625 L 46.34375 -58.390625 C 55.863281 -58.390625 63.546875 -57.675781 69.390625 -56.25 C 75.234375 -54.820312 79.5 -52.582031 82.1875 -49.53125 C 84.875 -46.476562 86.21875 -42.5 86.21875 -37.59375 C 86.21875 -33.5 85.285156 -30.050781 83.421875 -27.25 C 81.566406 -24.457031 78.632812 -22.25 74.625 -20.625 C 78.5 -19.03125 81.007812 -17.113281 82.15625 -14.875 C 83.3125 -12.632812 84.023438 -10.171875 84.296875 -7.484375 C 84.578125 -5.097656 85.21875 -2.601562 86.21875 0 Z M 31 -31.25 L 45 -31.28125 C 48.90625 -31.28125 51.984375 -31.457031 54.234375 -31.8125 C 56.484375 -32.164062 58.144531 -32.644531 59.21875 -33.25 C 60.289062 -33.863281 60.972656 -34.546875 61.265625 -35.296875 C 61.566406 -36.046875 61.71875 -36.8125 61.71875 -37.59375 C 61.71875 -38.382812 61.566406 -39.15625 61.265625 -39.90625 C 60.972656 -40.664062 60.289062 -41.351562 59.21875 -41.96875 C 58.144531 -42.582031 56.484375 -43.0625 54.234375 -43.40625 C 51.984375 -43.757812 48.90625 -43.9375 45 -43.9375 L 31 -43.9375 Z M 31 -31.25 "/></g></g></g><g fill="#000000" fill-opacity="1"><g transform="translate(365.182175, 360.12047)"><g><path d="M 44.140625 1.265625 C 29.710938 1.265625 19.09375 -1.707031 12.28125 -7.65625 C 6.257812 -12.914062 3.25 -20.085938 3.25 -29.171875 C 3.25 -38.234375 6.257812 -45.394531 12.28125 -50.65625 C 19.09375 -56.59375 29.710938 -59.5625 44.140625 -59.5625 C 58.578125 -59.5625 69.195312 -56.59375 76 -50.65625 C 82.019531 -45.394531 85.03125 -38.234375 85.03125 -29.171875 C 85.03125 -20.085938 82.019531 -12.914062 76 -7.65625 C 69.195312 -1.707031 58.578125 1.265625 44.140625 1.265625 Z M 44.140625 -14.40625 C 50.054688 -14.40625 54.398438 -16.097656 57.171875 -19.484375 C 59.390625 -22.222656 60.5 -25.453125 60.5 -29.171875 C 60.5 -32.890625 59.390625 -36.101562 57.171875 -38.8125 C 54.398438 -42.226562 50.054688 -43.9375 44.140625 -43.9375 C 38.234375 -43.9375 33.878906 -42.226562 31.078125 -38.8125 C 28.859375 -36.101562 27.75 -32.890625 27.75 -29.171875 C 27.75 -25.453125 28.859375 -22.222656 31.078125 -19.484375 C 33.878906 -16.097656 38.234375 -14.40625 44.140625 -14.40625 Z M 44.140625 -14.40625 "/></g></g></g><g fill="#000000" fill-opacity="1"><g transform="translate(446.04562, 360.12047)"><g><path d="M 74.65625 0 L 6.515625 0 L 6.515625 -58.390625 L 31 -58.390625 L 31 -14.4375 L 74.65625 -14.4375 Z M 74.65625 0 "/></g></g></g><g fill="#000000" fill-opacity="1"><g transform="translate(514.907896, 360.12047)"><g><path d="M 74.65625 0 L 6.515625 0 L 6.515625 -58.390625 L 31 -58.390625 L 31 -14.4375 L 74.65625 -14.4375 Z M 74.65625 0 "/></g></g></g></svg>