<svg xmlns="http://www.w3.org/2000/svg" xmlns:xlink="http://www.w3.org/1999/xlink" width="1123" zoomAndPan="magnify" viewBox="0 0 842.25 597.750004" height="797" preserveAspectRatio="xMidYMid meet" version="1.0"><defs><g/></defs><g fill="#000000" fill-opacity="1"><g transform="translate(27.896656, 288.933862)"><g><path d="M 41.046875 1.265625 C 26.804688 1.265625 16.785156 -1.691406 10.984375 -7.609375 C 6.097656 -12.566406 3.65625 -19.738281 3.65625 -29.125 L 3.65625 -58.34375 L 28.15625 -58.34375 L 28.15625 -29.125 C 28.15625 -25.0625 28.847656 -21.847656 30.234375 -19.484375 C 32.210938 -16.097656 35.816406 -14.40625 41.046875 -14.40625 C 46.335938 -14.40625 49.960938 -16.097656 51.921875 -19.484375 C 53.304688 -21.929688 54 -25.144531 54 -29.125 L 54 -58.34375 L 78.484375 -58.34375 L 78.484375 -28.8125 C 78.484375 -19.632812 76.054688 -12.566406 71.203125 -7.609375 C 65.367188 -1.691406 55.316406 1.265625 41.046875 1.265625 Z M 41.046875 1.265625 "/></g></g></g><g fill="#000000" fill-opacity="1"><g transform="translate(102.617119, 288.933862)"><g><path d="M 93.140625 0 L 64 0 L 31 -39.5 L 31 0 L 6.515625 0 L 6.515625 -58.390625 L 35.640625 -58.390625 L 68.640625 -19.078125 L 68.640625 -58.390625 L 93.140625 -58.390625 Z M 93.140625 0 "/></g></g></g><g fill="#000000" fill-opacity="1"><g transform="translate(194.830778, 288.933862)"><g><path d="M 31 0 L 6.515625 0 L 6.515625 -58.390625 L 31 -58.390625 Z M 31 0 "/></g></g></g><g fill="#000000" fill-opacity="1"><g transform="translate(224.92325, 288.933862)"><g><path d="M 49.796875 0 L 25.3125 0 L 25.3125 -43.9375 L 2.4375 -43.9375 L 2.4375 -58.390625 L 72.671875 -58.390625 L 72.671875 -43.9375 L 49.796875 -43.9375 Z M 49.796875 0 "/></g></g></g><g fill="#000000" fill-opacity="1"><g transform="translate(27.896656, 360.12047)"><g><path d="M 44.140625 1.265625 C 29.710938 1.265625 19.09375 -1.707031 12.28125 -7.65625 C 6.257812 -12.882812 3.25 -20.039062 3.25 -29.125 C 3.25 -38.21875 6.257812 -45.394531 12.28125 -50.65625 C 19.09375 -56.570312 29.710938 -59.53125 44.140625 -59.53125 C 52.609375 -59.53125 59.609375 -58.554688 65.140625 -56.609375 C 70.671875 -54.671875 74.96875 -52.019531 78.03125 -48.65625 C 81.101562 -45.289062 83.140625 -41.441406 84.140625 -37.109375 L 58.390625 -37.109375 C 55.804688 -41.640625 51.054688 -43.90625 44.140625 -43.90625 C 38.234375 -43.90625 33.878906 -42.195312 31.078125 -38.78125 C 28.859375 -36.0625 27.75 -32.84375 27.75 -29.125 C 27.75 -25.414062 28.859375 -22.203125 31.078125 -19.484375 C 33.878906 -16.066406 38.234375 -14.359375 44.140625 -14.359375 C 51.054688 -14.359375 55.804688 -16.640625 58.390625 -21.203125 L 84.140625 -21.203125 C 83.140625 -16.828125 81.101562 -12.957031 78.03125 -9.59375 C 74.96875 -6.238281 70.671875 -3.585938 65.140625 -1.640625 C 59.609375 0.296875 52.609375 1.265625 44.140625 1.265625 Z M 44.140625 1.265625 "/></g></g></g><g fill="#000000" fill-opacity="1"><g transform="translate(107.865078, 360.12047)"><g><path d="M 44.140625 1.265625 C 29.710938 1.265625 19.09375 -1.707031 12.28125 -7.65625 C 6.257812 -12.914062 3.25 -20.085938 3.25 -29.171875 C 3.25 -38.234375 6.257812 -45.394531 12.28125 -50.65625 C 19.09375 -56.59375 29.710938 -59.5625 44.140625 -59.5625 C 58.578125 -59.5625 69.195312 -56.59375 76 -50.65625 C 82.019531 -45.394531 85.03125 -38.234375 85.03125 -29.171875 C 85.03125 -20.085938 82.019531 -12.914062 76 -7.65625 C 69.195312 -1.707031 58.578125 1.265625 44.140625 1.265625 Z M 44.140625 -14.40625 C 50.054688 -14.40625 54.398438 -16.097656 57.171875 -19.484375 C 59.390625 -22.222656 60.5 -25.453125 60.5 -29.171875 C 60.5 -32.890625 59.390625 -36.101562 57.171875 -38.8125 C 54.398438 -42.226562 50.054688 -43.9375 44.140625 -43.9375 C 38.234375 -43.9375 33.878906 -42.226562 31.078125 -38.8125 C 28.859375 -36.101562 27.75 -32.890625 27.75 -29.171875 C 27.75 -25.453125 28.859375 -22.222656 31.078125 -19.484375 C 33.878906 -16.097656 38.234375 -14.40625 44.140625 -14.40625 Z M 44.140625 -14.40625 "/></g></g></g><g fill="#000000" fill-opacity="1"><g transform="translate(188.7285, 360.12047)"><g><path d="M 93.140625 0 L 64 0 L 31 -39.5 L 31 0 L 6.515625 0 L 6.515625 -58.390625 L 35.640625 -58.390625 L 68.640625 -19.078125 L 68.640625 -58.390625 L 93.140625 -58.390625 Z M 93.140625 0 "/></g></g></g><g fill="#000000" fill-opacity="1"><g transform="translate(280.942159, 360.12047)"><g><path d="M 56.0625 0 L 33.328125 0 L 0.609375 -58.34375 L 25.4375 -58.34375 L 44.71875 -16.640625 L 63.953125 -58.34375 L 88.78125 -58.34375 Z M 56.0625 0 "/></g></g></g><g fill="#000000" fill-opacity="1"><g transform="translate(362.903992, 360.12047)"><g><path d="M 76.8125 0 L 6.515625 0 L 6.515625 -58.390625 L 73.609375 -58.390625 L 73.609375 -43.9375 L 31 -43.9375 L 31 -34.78125 L 67.015625 -34.78125 L 67.015625 -23.5625 L 31 -23.5625 L 31 -14.4375 L 76.8125 -14.4375 Z M 76.8125 0 "/></g></g></g><g fill="#000000" fill-opacity="1"><g transform="translate(435.549658, 360.12047)"><g><path d="M 86.21875 0 L 63.0625 0 C 62.007812 -1.46875 61.265625 -3.335938 60.828125 -5.609375 C 60.453125 -7.378906 59.882812 -9.109375 59.125 -10.796875 C 58.363281 -12.492188 57.050781 -13.90625 55.1875 -15.03125 C 53.332031 -16.15625 50.570312 -16.757812 46.90625 -16.84375 L 31 -16.84375 L 31 0 L 6.515625 0 L 6.515625 -58.390625 L 46.34375 -58.390625 C 55.863281 -58.390625 63.546875 -57.675781 69.390625 -56.25 C 75.234375 -54.820312 79.5 -52.582031 82.1875 -49.53125 C 84.875 -46.476562 86.21875 -42.5 86.21875 -37.59375 C 86.21875 -33.5 85.285156 -30.050781 83.421875 -27.25 C 81.566406 -24.457031 78.632812 -22.25 74.625 -20.625 C 78.5 -19.03125 81.007812 -17.113281 82.15625 -14.875 C 83.3125 -12.632812 84.023438 -10.171875 84.296875 -7.484375 C 84.578125 -5.097656 85.21875 -2.601562 86.21875 0 Z M 31 -31.25 L 45 -31.28125 C 48.90625 -31.28125 51.984375 -31.457031 54.234375 -31.8125 C 56.484375 -32.164062 58.144531 -32.644531 59.21875 -33.25 C 60.289062 -33.863281 60.972656 -34.546875 61.265625 -35.296875 C 61.566406 -36.046875 61.71875 -36.8125 61.71875 -37.59375 C 61.71875 -38.382812 61.566406 -39.15625 61.265625 -39.90625 C 60.972656 -40.664062 60.289062 -41.351562 59.21875 -41.96875 C 58.144531 -42.582031 56.484375 -43.0625 54.234375 -43.40625 C 51.984375 -43.757812 48.90625 -43.9375 45 -43.9375 L 31 -43.9375 Z M 31 -31.25 "/></g></g></g><g fill="#000000" fill-opacity="1"><g transform="translate(517.592854, 360.12047)"><g><path d="M 49.796875 0 L 25.3125 0 L 25.3125 -43.9375 L 2.4375 -43.9375 L 2.4375 -58.390625 L 72.671875 -58.390625 L 72.671875 -43.9375 L 49.796875 -43.9375 Z M 49.796875 0 "/></g></g></g><g fill="#000000" fill-opacity="1"><g transform="translate(585.275333, 360.12047)"><g><path d="M 76.8125 0 L 6.515625 0 L 6.515625 -58.390625 L 73.609375 -58.390625 L 73.609375 -43.9375 L 31 -43.9375 L 31 -34.78125 L 67.015625 -34.78125 L 67.015625 -23.5625 L 31 -23.5625 L 31 -14.4375 L 76.8125 -14.4375 Z M 76.8125 0 "/></g></g></g><g fill="#000000" fill-opacity="1"><g transform="translate(657.920999, 360.12047)"><g><path d="M 86.21875 0 L 63.0625 0 C 62.007812 -1.46875 61.265625 -3.335938 60.828125 -5.609375 C 60.453125 -7.378906 59.882812 -9.109375 59.125 -10.796875 C 58.363281 -12.492188 57.050781 -13.90625 55.1875 -15.03125 C 53.332031 -16.15625 50.570312 -16.757812 46.90625 -16.84375 L 31 -16.84375 L 31 0 L 6.515625 0 L 6.515625 -58.390625 L 46.34375 -58.390625 C 55.863281 -58.390625 63.546875 -57.675781 69.390625 -56.25 C 75.234375 -54.820312 79.5 -52.582031 82.1875 -49.53125 C 84.875 -46.476562 86.21875 -42.5 86.21875 -37.59375 C 86.21875 -33.5 85.285156 -30.050781 83.421875 -27.25 C 81.566406 -24.457031 78.632812 -22.25 74.625 -20.625 C 78.5 -19.03125 81.007812 -17.113281 82.15625 -14.875 C 83.3125 -12.632812 84.023438 -10.171875 84.296875 -7.484375 C 84.578125 -5.097656 85.21875 -2.601562 86.21875 0 Z M 31 -31.25 L 45 -31.28125 C 48.90625 -31.28125 51.984375 -31.457031 54.234375 -31.8125 C 56.484375 -32.164062 58.144531 -32.644531 59.21875 -33.25 C 60.289062 -33.863281 60.972656 -34.546875 61.265625 -35.296875 C 61.566406 -36.046875 61.71875 -36.8125 61.71875 -37.59375 C 61.71875 -38.382812 61.566406 -39.15625 61.265625 -39.90625 C 60.972656 -40.664062 60.289062 -41.351562 59.21875 -41.96875 C 58.144531 -42.582031 56.484375 -43.0625 54.234375 -43.40625 C 51.984375 -43.757812 48.90625 -43.9375 45 -43.9375 L 31 -43.9375 Z M 31 -31.25 "/></g></g></g></svg>