<svg xmlns="http://www.w3.org/2000/svg" xmlns:xlink="http://www.w3.org/1999/xlink" width="1123" zoomAndPan="magnify" viewBox="0 0 842.25 597.750004" height="797" preserveAspectRatio="xMidYMid meet" version="1.0"><defs><g/></defs><g fill="#000000" fill-opacity="1"><g transform="translate(27.896656, 324.527166)"><g><path d="M 86.25 0 L 61.765625 0 L 61.765625 -23.5625 L 31 -23.5625 L 31 0 L 6.515625 0 L 6.515625 -58.390625 L 31 -58.390625 L 31 -34.78125 L 61.765625 -34.78125 L 61.765625 -58.390625 L 86.25 -58.390625 Z M 86.25 0 "/></g></g></g><g fill="#000000" fill-opacity="1"><g transform="translate(113.235082, 324.527166)"><g><path d="M 44.140625 1.265625 C 29.710938 1.265625 19.09375 -1.707031 12.28125 -7.65625 C 6.257812 -12.914062 3.25 -20.085938 3.25 -29.171875 C 3.25 -38.234375 6.257812 -45.394531 12.28125 -50.65625 C 19.09375 -56.59375 29.710938 -59.5625 44.140625 -59.5625 C 58.578125 -59.5625 69.195312 -56.59375 76 -50.65625 C 82.019531 -45.394531 85.03125 -38.234375 85.03125 -29.171875 C 85.03125 -20.085938 82.019531 -12.914062 76 -7.65625 C 69.195312 -1.707031 58.578125 1.265625 44.140625 1.265625 Z M 44.140625 -14.40625 C 50.054688 -14.40625 54.398438 -16.097656 57.171875 -19.484375 C 59.390625 -22.222656 60.5 -25.453125 60.5 -29.171875 C 60.5 -32.890625 59.390625 -36.101562 57.171875 -38.8125 C 54.398438 -42.226562 50.054688 -43.9375 44.140625 -43.9375 C 38.234375 -43.9375 33.878906 -42.226562 31.078125 -38.8125 C 28.859375 -36.101562 27.75 -32.890625 27.75 -29.171875 C 27.75 -25.453125 28.859375 -22.222656 31.078125 -19.484375 C 33.878906 -16.097656 38.234375 -14.40625 44.140625 -14.40625 Z M 44.140625 -14.40625 "/></g></g></g><g fill="#000000" fill-opacity="1"><g transform="translate(194.098505, 324.527166)"><g><path d="M 117.5 0 L 93.015625 0 L 93.015625 -37.234375 L 71.125 0 L 52.859375 0 L 31 -37.234375 L 31 0 L 6.515625 0 L 6.515625 -58.390625 L 35.609375 -58.390625 L 62.015625 -16.6875 L 88.375 -58.390625 L 117.5 -58.390625 Z M 117.5 0 "/></g></g></g><g fill="#000000" fill-opacity="1"><g transform="translate(310.680592, 324.527166)"><g><path d="M 76.8125 0 L 6.515625 0 L 6.515625 -58.390625 L 73.609375 -58.390625 L 73.609375 -43.9375 L 31 -43.9375 L 31 -34.78125 L 67.015625 -34.78125 L 67.015625 -23.5625 L 31 -23.5625 L 31 -14.4375 L 76.8125 -14.4375 Z M 76.8125 0 "/></g></g></g></svg>