<svg xmlns="http://www.w3.org/2000/svg" xmlns:xlink="http://www.w3.org/1999/xlink" width="1123" zoomAndPan="magnify" viewBox="0 0 842.25 597.749982" height="797" preserveAspectRatio="xMidYMid meet" version="1.0"><defs><g/></defs><g fill="#000000" fill-opacity="1"><g transform="translate(59.70683, 340.038901)"><g><path d="M 62.171875 1.96875 C 39.941406 1.96875 24.296875 -2.644531 15.234375 -11.875 C 7.617188 -19.625 3.8125 -30.820312 3.8125 -45.46875 L 42.046875 -45.46875 C 42.046875 -39.113281 43.125 -34.097656 45.28125 -30.421875 C 48.375 -25.128906 54.003906 -22.484375 62.171875 -22.484375 C 70.429688 -22.484375 76.082031 -25.128906 79.125 -30.421875 C 81.289062 -34.234375 82.375 -39.25 82.375 -45.46875 L 82.375 -91.0625 L 120.59375 -91.0625 L 120.59375 -44.96875 C 120.59375 -30.65625 116.804688 -19.625 109.234375 -11.875 C 100.128906 -2.644531 84.441406 1.96875 62.171875 1.96875 Z M 62.171875 1.96875 "/></g></g></g><g fill="#000000" fill-opacity="1"><g transform="translate(174.434582, 340.038901)"><g><path d="M 68.90625 1.96875 C 46.382812 1.96875 29.804688 -2.664062 19.171875 -11.9375 C 9.773438 -20.15625 5.078125 -31.351562 5.078125 -45.53125 C 5.078125 -59.675781 9.773438 -70.851562 19.171875 -79.0625 C 29.804688 -88.332031 46.382812 -92.96875 68.90625 -92.96875 C 91.425781 -92.96875 108 -88.332031 118.625 -79.0625 C 128.03125 -70.851562 132.734375 -59.675781 132.734375 -45.53125 C 132.734375 -31.351562 128.03125 -20.15625 118.625 -11.9375 C 108 -2.664062 91.425781 1.96875 68.90625 1.96875 Z M 68.90625 -22.484375 C 78.132812 -22.484375 84.910156 -25.128906 89.234375 -30.421875 C 92.703125 -34.691406 94.4375 -39.726562 94.4375 -45.53125 C 94.4375 -51.332031 92.703125 -56.347656 89.234375 -60.578125 C 84.910156 -65.921875 78.132812 -68.59375 68.90625 -68.59375 C 59.675781 -68.59375 52.878906 -65.921875 48.515625 -60.578125 C 45.046875 -56.347656 43.3125 -51.332031 43.3125 -45.53125 C 43.3125 -39.726562 45.046875 -34.691406 48.515625 -30.421875 C 52.878906 -25.128906 59.675781 -22.484375 68.90625 -22.484375 Z M 68.90625 -22.484375 "/></g></g></g><g fill="#000000" fill-opacity="1"><g transform="translate(300.656029, 340.038901)"><g><path d="M 87.515625 0 L 52.015625 0 L 0.953125 -91.0625 L 39.6875 -91.0625 L 69.796875 -25.96875 L 99.828125 -91.0625 L 138.578125 -91.0625 Z M 87.515625 0 "/></g></g></g><g fill="#000000" fill-opacity="1"><g transform="translate(428.591994, 340.038901)"><g><path d="M 48.390625 0 L 10.15625 0 L 10.15625 -91.125 L 48.390625 -91.125 Z M 48.390625 0 "/></g></g></g><g fill="#000000" fill-opacity="1"><g transform="translate(475.564109, 340.038901)"><g><path d="M 153.046875 0 L 114.3125 0 L 105.734375 -14.921875 L 48.265625 -14.921875 L 39.6875 0 L 0.953125 0 L 59.25 -91.0625 L 94.75 -91.0625 Z M 92.84375 -37.46875 L 77.03125 -65.09375 L 61.15625 -37.46875 Z M 92.84375 -37.46875 "/></g></g></g><g fill="#000000" fill-opacity="1"><g transform="translate(617.978339, 340.038901)"><g><path d="M 145.375 0 L 99.890625 0 L 48.390625 -61.671875 L 48.390625 0 L 10.15625 0 L 10.15625 -91.125 L 55.625 -91.125 L 107.140625 -29.78125 L 107.140625 -91.125 L 145.375 -91.125 Z M 145.375 0 "/></g></g></g></svg>